  <svg xmlns="http://www.w3.org/2000/svg"  width="39" height="58" viewBox="0 0 39 58" fill="none"><script />
            <path d="M33.2509 5.64091C29.6023 2.02881 24.6569 0 19.5007 0C14.3445 0 9.39906 2.02881 5.7504 5.64091C3.90589 7.38028 2.44324 9.47833 1.45402 11.8038C0.464803 14.1293 -0.0297176 16.6321 0.00138076 19.1557C0.00138076 23.9088 2.14814 28.6619 6.44166 33.4151L7.86398 34.9817C10.743 38.0788 13.2126 41.5266 15.2131 45.2422C17.1334 49.3092 18.5784 53.5805 19.5199 57.973C20.4387 53.5795 21.8707 49.307 23.7869 45.2422C25.7878 41.5269 28.2574 38.0791 31.136 34.9817L32.5583 33.4151C36.8519 28.6611 38.9986 23.908 38.9986 19.1557C39.0298 16.6322 38.5354 14.1294 37.5465 11.804C36.5575 9.47855 35.0951 7.38044 33.2509 5.64091ZM19.5013 31.1288C17.0107 31.1288 14.5761 30.3966 12.5052 29.0248C10.4344 27.6529 8.82036 25.703 7.86726 23.4217C6.91415 21.1404 6.66476 18.6302 7.15065 16.2083C7.63654 13.7865 8.83586 11.5619 10.597 9.8159C12.3581 8.06987 14.6019 6.88082 17.0446 6.39909C19.4874 5.91736 22.0193 6.16459 24.3203 7.10954C26.6213 8.05448 28.588 9.65469 29.9717 11.7078C31.3554 13.7609 32.0939 16.1747 32.0939 18.644C32.0941 20.2841 31.7684 21.9081 31.1353 23.4234C30.5022 24.9386 29.5742 26.3153 28.4042 27.4748C27.2343 28.6343 25.8455 29.554 24.3169 30.1812C22.7884 30.8084 21.1503 31.1308 19.496 31.1301L19.5013 31.1288Z" fill="#F3C300" />
<script /></svg>